HIERARCHY
ROOT Spine
{
    OFFSET 0.0 0.0 -0.0
    CHANNELS 6 Xposition Yposition Zposition Zrotation Xrotation Yrotation
    JOINT ShoulderCenter
    {
        OFFSET 0.0 0.31030890345573425 0.0
        CHANNELS 3 Zrotation Xrotation Yrotation
        JOINT LeftShoulder
        {
            OFFSET 0.19471313059329987 0.0 0.0
            CHANNELS 3 Zrotation Xrotation Yrotation
            JOINT LeftElbow
            {
                OFFSET 0.2616344094276428 0.0 0.0
                CHANNELS 3 Zrotation Xrotation Yrotation
                JOINT LeftHand
                {
                    OFFSET 0.33171942830085754 0.0 0.0
                    CHANNELS 3 Zrotation Xrotation Yrotation
                    End Site
                    {
                        OFFSET 0.1326877772808075 0.0 0.0
                    }
                }
            }
        }
        JOINT RightShoulder
        {
            OFFSET -0.19471313059329987 0.0 0.0
            CHANNELS 3 Zrotation Xrotation Yrotation
            JOINT RightElbow
            {
                OFFSET -0.2616344094276428 0.0 0.0
                CHANNELS 3 Zrotation Xrotation Yrotation
                JOINT RightHand
                {
                    OFFSET -0.33171942830085754 0.0 0.0
                    CHANNELS 3 Zrotation Xrotation Yrotation
                    End Site
                    {
                        OFFSET -0.1326877772808075 0.0 0.0
                    }
                }
            }
        }
        End Site
        {
            OFFSET 0.0 0.12412355840206146 0.0
        }
    }
    JOINT LeftHip
    {
        OFFSET 0.16260118231916468 -0.16260118231916468 0.0
        CHANNELS 3 Zrotation Xrotation Yrotation
        JOINT LeftKnee
        {
            OFFSET 0.0 -0.4167487919330597 0.0
            CHANNELS 3 Zrotation Xrotation Yrotation
            JOINT LeftFoot
            {
                OFFSET 0.0 -0.4673203229904175 0.0
                CHANNELS 3 Zrotation Xrotation Yrotation
                End Site
                {
                    OFFSET 0.0 0.0 0.18692812323570251
                }
            }
        }
    }
    JOINT RightHip
    {
        OFFSET -0.16260118231916468 -0.16260118231916468 0.0
        CHANNELS 3 Zrotation Xrotation Yrotation
        JOINT RightKnee
        {
            OFFSET 0.0 -0.4167487919330597 0.0
            CHANNELS 3 Zrotation Xrotation Yrotation
            JOINT RightFoot
            {
                OFFSET 0.0 -0.4673203229904175 0.0
                CHANNELS 3 Zrotation Xrotation Yrotation
                End Site
                {
                    OFFSET 0.0 0.0 0.18692812323570251
                }
            }
        }
    }
}
MOTION
Frames: 10
Frame Time: 0.03333333333333333
-0.03200000151991844 0.1589999943971634 0.31200000643730164 -1.662958963272937 -2.584706541657818 -1.2041021905403508 7.569583510352334e-08 2.2456535290396333e-07 8.708859185769487 86.12071404529271 -21.74315194835353 -179.89322349669064 -1.5437348494530087e-06 1.723866765902486e-06 104.78011337751263 0.0 0.0 -3.1805546814635168e-15 -117.24224416498237 -37.04941317554423 167.46166925839367 -3.5943541926937506e-06 -2.556208514468392e-07 -105.037925706782 6.3611093629270335e-15 0.0 0.0 6.434191250221311 -2.2978467931541817 -23.467666619210565 -0.36385701330912834 10.702226626287626 -31.137363636988702 -6.896728590703373e-34 3.975693351829395e-16 1.9878466759146975e-16 -22.26400729044099 1.5275793153177184 83.83269762072695 -13.430816323812326 -1.5144226133696281 -152.00253383344878 0.0 0.0 3.975693351829396e-16
-0.03200000151991844 0.1589999943971634 0.31299999356269836 -1.668337712761476 -2.7779876888408714 -1.1965365947677467 1.5306643754108504e-08 -3.924487540887513e-07 9.303571786225111 86.23256498236829 -22.587300382387035 -179.46085756443895 -2.982225069536375e-07 3.26531248886145e-06 104.72035219532593 1.7655625192200634e-31 -6.3611093629270335e-15 3.1805546814635168e-15 -117.75784579759613 -38.115944602037096 167.82736327993726 -3.7664160975814126e-06 4.211522100594681e-06 -104.58287829261745 0.0 0.0 -3.1805546814635168e-15 6.434381590449914 -2.1065857551103595 -23.497160592532737 -0.4178359116789171 10.819045818644597 -31.32479021609571 7.951386703658792e-16 -9.310583597449553e-33 -1.341796506242421e-15 -22.37886955065704 1.4327857759998124 84.36526356269799 -13.412996990909317 -1.476959723367478 -154.65623606213407 2.758691436281349e-33 -7.951386703658792e-16 3.975693351829396e-16
-0.03099999949336052 0.1589999943971634 0.31299999356269836 -1.4830544829313566 -2.7782345793836654 -0.5374173628041933 6.731292395048297e-08 -1.267981026516877e-07 8.789546015510167 86.09038935304655 -22.55062850526245 -179.27308200381037 -1.7954612468237267e-07 -2.3412378901644707e-06 104.70107861397778 6.361109362927033e-15 0.0 0.0 -118.75307100775866 -39.352004038104305 167.42418670718004 -2.078367324020578e-06 3.557137145895903e-06 -103.99696654200936 3.1805546814635164e-15 0.0 0.0 6.3634828967054355 -2.17923382493786 -25.07773324035608 -0.7217038518638003 10.750712557493118 -31.539308150213852 7.951386703658791e-16 -3.9756933518293955e-16 2.758691436281349e-33 -22.727730677891383 1.673101513791241 83.85523835117147 -13.503619173707635 -1.6452798006223899 -148.9657304614822 1.5902773407317582e-15 -3.1805546814635164e-15 1.5902773407317582e-15
-0.03099999949336052 0.1589999943971634 0.31299999356269836 -1.4830544829313566 -2.7782345793836654 -0.5374173628041933 -7.937843894278342e-08 -3.839521756617693e-07 8.937513498096454 85.85742535043595 -22.17437159127962 -179.32072441701712 2.728244229962826e-06 -2.9660256907411202e-06 104.35780813284623 1.7655625192200634e-31 6.3611093629270335e-15 -3.1805546814635168e-15 -118.96048063446847 -39.55592840314396 167.51695851078253 -4.879719042282552e-06 2.5606479015448397e-06 -104.13572557866313 -3.1805546814635168e-15 8.827812596100317e-32 -3.1805546814635168e-15 6.501755966965923 -2.1776571319254496 -26.077297861893122 -1.2229496195519283 10.715206087600608 -30.711729474613264 -8.793328953146801e-33 -3.975693351829396e-16 -2.53450451179124e-15 -22.54386151235807 1.5426099521299939 83.00694015448451 -13.47837717285023 -1.7726972066474544 -145.45099024161667 -2.2069531490250793e-32 7.951386703658792e-16 3.1805546814635168e-15
-0.03099999949336052 0.15800000727176666 0.3140000104904175 -1.4782725514627375 -2.7692982893094986 -0.5031820205856657 -5.334629653173869e-08 2.456173261182835e-07 8.903136808518106 85.7428949149032 -21.91936839042906 -179.76506399362032 -7.495325794394098e-07 -9.330173655154491e-06 104.37244404809694 -6.3611093629270335e-15 -6.3611093629270335e-15 6.3611093629270335e-15 -119.0848282035218 -39.207040055442036 167.28779222933593 -2.722260987118818e-06 -2.3789135048798285e-07 -104.6514524731148 6.3611093629270335e-15 0.0 0.0 6.345717750276557 -2.17995170322297 -25.536248487136714 -1.074652897563384 11.031736654415264 -31.13629820827846 7.951386703658792e-16 -1.793149433582877e-32 -2.5842006786891076e-15 -23.145700337420873 1.1218614011777637 84.78919775163773 -13.485338325186254 -1.2618652543229132 -156.83247153673244 1.5902773407317584e-15 1.1034765745125397e-31 7.951386703658792e-15
-0.03099999949336052 0.15800000727176666 0.3149999976158142 -1.4782725094645577 -2.953598880971269 -0.15029951260488525 -7.441301717520281e-08 1.6565962229441523e-07 8.713447548660227 86.09848713126668 -22.12751568107588 179.8578644109999 2.7406632106482564e-06 -3.2144137554670947e-06 104.50804312869563 0.0 0.0 0.0 -118.18999676566423 -38.54392083345911 167.97854017483633 -6.593821346597603e-06 2.811242953584153e-06 -104.80709477283584 0.0 -6.3611093629270335e-15 0.0 6.480572370730731 -2.1853064669099487 -25.21137388726502 -1.1946421684043633 11.231493204330045 -32.338137337161555 0.0 0.0 -2.4848083448933726e-15 -23.322046404435362 1.424470114806463 85.50840693559383 -13.597687166559892 -1.2223130219510256 -158.3714473170757 1.5902773407317584e-15 1.5902773407317584e-15 -3.578124016646457e-15
-0.03200000151991844 0.1589999943971634 0.3160000145435333 -1.6683376046956566 -2.9628704639361945 -0.5363065143874006 -5.81266417293827e-08 2.2911605878948711e-07 9.095759064773898 86.27767563304097 -22.16744952383174 179.88823853121278 -4.3980906303792236e-08 -2.9697690992965354e-06 104.38183111407514 -6.3611093629270335e-15 -3.531125038440127e-31 6.3611093629270335e-15 -118.34093429625216 -37.90354105060065 167.79225920256414 5.497454539683374e-07 -1.0067577778067702e-06 -105.20577939154214 1.7655625192200634e-31 -6.361109362927035e-15 3.1805546814635176e-15 6.671312081550873 -1.843897130326246 -26.156906021183886 -1.2578807613125986 10.833703149116717 -30.501868105623224 -7.951386703658792e-16 -6.586375804121721e-32 9.491967877492683e-15 -22.538561665328036 1.5763372021034923 83.90456628290414 -13.567005227565474 -1.764155754983168 -148.01910677191486 1.5902773407317582e-15 7.951386703658791e-16 3.9756933518293955e-16
-0.03200000151991844 0.1589999943971634 0.3160000145435333 -1.8535857305574412 -2.9625765115202802 -0.2025006615289828 1.6629256444273978e-07 -2.1299833555330274e-08 8.891855838625135 86.48576519645557 -22.31763885529339 179.89869116201822 1.744144185987871e-06 -1.0093073912657344e-06 104.55909453420624 6.3611093629270335e-15 6.3611093629270335e-15 -3.531125038440127e-31 -117.96531636857692 -37.17281317867499 167.94229171612616 5.715757333560439e-06 2.511513483898833e-08 -105.31405653035957 -3.1805546814635168e-15 0.0 0.0 6.857291803600557 -1.8951261963206258 -26.448347496779075 -1.2644691814766127 10.839893037141676 -30.676001401005145 0.0 0.0 -3.826604851135793e-15 -22.344473728891742 1.7082500346025324 83.76389235068295 -13.460087978068497 -1.7082842087478922 -145.3830108393471 -3.1805546814635164e-15 1.9862578341225716e-31 -7.156248033292912e-15
-0.03200000151991844 0.15800000727176666 0.31700000166893005 -1.84761057839036 -3.137252197231 -0.19483626296526554 -5.005301863420614e-08 1.578638834993118e-07 8.90633500550809 86.13976028698787 -22.35579554290282 179.4582580151703 3.282617192386904e-06 -3.93863485929107e-06 104.6477634682029 0.0 0.0 0.0 -118.24146867412445 -37.42755555064596 167.90388359839372 1.1202263886648733e-06 -7.758099037964089e-07 -104.89133184969646 3.1805546814635168e-15 6.3611093629270335e-15 -1.7655625192200634e-31 6.849830569111442 -1.7225965844053366 -26.5086704952646 -1.3287884863623936 10.95387761208105 -30.69252296230915 -7.951386703658792e-16 3.9756933518293955e-16 6.6592863643142385e-15 -22.474030255178373 1.7342717854472895 83.83811677260229 -13.34493499296594 -1.6569404180630947 -145.92275051946282 -1.5902773407317584e-15 -1.2138242319637935e-31 8.74652537402467e-15
-0.03099999949336052 0.15800000727176666 0.31700000166893005 -1.6629587636077074 -2.953338080830783 -0.1931061242388652 3.855269528728668e-08 -2.9991600057879646e-07 9.05457802313833 86.09877210936575 -22.549825512302576 -179.9325258277598 -3.266848217826347e-06 -2.2168432835994584e-06 104.60676893067158 1.7655625192200634e-31 6.3611093629270335e-15 -3.1805546814635168e-15 -119.14368274836634 -37.750658926785356 167.46127781199465 -1.1803773218577428e-06 -1.850817012299399e-06 -104.28740966604639 3.1805546814635164e-15 8.827812596100317e-32 3.1805546814635164e-15 6.6670049219358445 -1.904900966565118 -26.874689262223253 -1.4053346494442023 10.94443574153819 -30.864475127542196 -3.1035278658165176e-32 -3.9756933518293955e-16 -8.945310041616139e-15 -22.712160164994465 1.5571013275661931 82.86448076050934 -13.38912544612261 -1.8741991258037856 -143.07751320559768 0.0 0.0 -2.782985346280577e-15
